<?xml version="1.0" standalone="no"?><!DOCTYPE svg PUBLIC "-//W3C//DTD SVG 1.1//EN" "http://www.w3.org/Graphics/SVG/1.1/DTD/svg11.dtd"><svg t="1566870991547" class="icon" viewBox="0 0 1084 1024" version="1.1" xmlns="http://www.w3.org/2000/svg" p-id="2983" xmlns:xlink="http://www.w3.org/1999/xlink" width="33.875" height="32"><defs><style type="text/css"></style></defs><path d="M210.824 210.824V45.176C210.824 21.082 231.906 0 256 0s45.176 21.082 45.176 45.176v165.648h165.648C490.918 210.824 512 231.906 512 256s-21.082 45.176-45.176 45.176H301.176v165.648C301.176 490.918 280.094 512 256 512s-45.176-21.082-45.176-45.176V301.176H45.176C21.082 301.176 0 280.094 0 256s21.082-45.176 45.176-45.176h165.648zM1024 84.329c18.07 18.071 18.07 48.189 0 66.26L180.706 993.881c-18.07 18.07-48.188 18.07-66.259 0s-18.07-48.188 0-66.258L957.741 84.329c18.07-15.058 48.188-15.058 66.259 0zM707.765 662.59h331.294c24.094 0 45.176 21.082 45.176 45.176s-21.082 45.176-45.176 45.176H707.765c-24.094 0-45.177-21.082-45.177-45.176s21.083-45.177 45.177-45.177z m0 210.823h331.294c24.094 0 45.176 21.082 45.176 45.176s-21.082 45.177-45.176 45.177H707.765c-24.094 0-45.177-21.083-45.177-45.177s21.083-45.176 45.177-45.176z" fill="#b6b6b6" p-id="2984"></path></svg>