<svg height="32" viewBox="0 0 1084 1024" width="33.875" xmlns="http://www.w3.org/2000/svg"><path d="m210.824 210.824v-165.648c0-24.094 21.082-45.176 45.176-45.176s45.176 21.082 45.176 45.176v165.648h165.648c24.094 0 45.176 21.082 45.176 45.176s-21.082 45.176-45.176 45.176h-165.648v165.648c0 24.094-21.082 45.176-45.176 45.176s-45.176-21.082-45.176-45.176v-165.648h-165.648c-24.094 0-45.176-21.082-45.176-45.176s21.082-45.176 45.176-45.176zm813.176-126.495c18.07 18.071 18.07 48.189 0 66.26l-843.294 843.292c-18.07 18.07-48.188 18.07-66.259 0s-18.07-48.188 0-66.258l843.294-843.294c18.07-15.058 48.188-15.058 66.259 0zm-316.235 578.261h331.294c24.094 0 45.176 21.082 45.176 45.176s-21.082 45.176-45.176 45.176h-331.294c-24.094 0-45.177-21.082-45.177-45.176s21.083-45.177 45.177-45.177zm0 210.823h331.294c24.094 0 45.176 21.082 45.176 45.176s-21.082 45.177-45.176 45.177h-331.294c-24.094 0-45.177-21.083-45.177-45.177s21.083-45.176 45.177-45.176z" fill="#d3a468"/></svg>