<svg height="32" viewBox="0 0 1024 1024" width="32" xmlns="http://www.w3.org/2000/svg"><path d="m946.5 505-386.4-386.2-25.9-25.9c-12.3-12.2-32.1-12.2-44.4 0l-412.3 412.1c-12.3 12.3-18.9 28.6-18.8 46 .4 35.2 29.7 63.3 64.9 63.3h42.5v325.7h691.8v-325.7h43.4c17.1 0 33.2-6.7 45.3-18.8s18.7-28.2 18.7-45.3c0-17-6.7-33.1-18.8-45.2zm-378.5 363h-112v-204h112zm217.9-325.7v325.7h-153.9v-228c0-22.1-17.9-40-40-40h-160c-22.1 0-40 17.9-40 40v228h-153.9v-325.7h-96l370-369.7 23.1 23.1 346.8 346.6z" fill="#b6b6b6"/></svg>