<svg height="32" viewBox="0 0 1024 1024" width="32" xmlns="http://www.w3.org/2000/svg"><path d="m643.566 480.451a207.796 207.796 0 0 0 77.954-162.689 203.106 203.106 0 1 0 -406.05 0 207.781 207.781 0 0 0 77.954 162.69 345.353 345.353 0 0 0 -213.334 320.248v68.939a34.148 34.148 0 0 0 33.842 34.513h609.068a34.148 34.148 0 0 0 33.841-34.513v-68.925a345.353 345.353 0 0 0 -213.334-320.249zm-259.552-162.981a134.43 134.43 0 1 1 134.43 137.089 135.89 135.89 0 0 1 -134.43-137.089zm398.292 516.59h-527.636v-33.608a263.818 263.818 0 1 1 527.49 0v33.608zm-506.508-327.132 7.306-1.651a35.42 35.42 0 0 0 26.667-32.482 34.908 34.908 0 0 0 -25.118-31.898 103.38 103.38 0 0 1 -65.344-94.145c0-45.954 42.754-84.749 87.452-98.119a202.083 202.083 0 0 1 34.703-61.56c2.616-4.076 5.421-8.05 8.242-11.923-3.01-.19-5.845-.877-8.914-.877-102.283 0-185.571 77.443-185.571 172.42a165.933 165.933 0 0 0 48.22 115.771 273.053 273.053 0 0 0 -159.651 244.881v53.32a35.843 35.843 0 0 0 37.128 34.512h66.514a254.715 254.715 0 0 1 7.466-61.077h-47.02v-26.755c0-95.313 68.938-177.14 167.934-200.402zm555.37-44.405a165.758 165.758 0 0 0 48.22-115.77c0-95.11-83.288-172.582-185.674-172.582-3.098 0-5.845.672-8.913.877 2.922 3.872 5.625 7.846 8.24 11.923a199.409 199.409 0 0 1 34.704 61.56c44.698 13.385 93.662 52.165 93.662 98.119a103.57 103.57 0 0 1 -65.359 94.247 35.069 35.069 0 0 0 -25.103 31.898 35.42 35.42 0 0 0 26.652 32.482l7.306 1.651c98.996 23.262 167.92 105.001 167.92 200.403v26.754h-53.23a249.6 249.6 0 0 1 7.466 61.078h66.513a35.843 35.843 0 0 0 37.144-34.514v-53.304a272.804 272.804 0 0 0 -159.592-244.808zm0 0" fill="#d3a468"/></svg>