<svg height="32" viewBox="0 0 1024 1024" width="32" xmlns="http://www.w3.org/2000/svg"><path d="m885.41 560.95c.21-8.45.23-17.05.06-25.67 2.3-116.62-32.41-214.92-100.38-284.31-32.42-33.09-71.85-58.48-117.04-75.78-7.01-62.99-75.42-112.58-158.52-112.58s-151.51 49.6-158.52 112.58c-45.18 17.3-84.61 42.7-117.03 75.79-67.99 69.39-102.71 167.5-100.4 283.77-.2 10.98-.14 21.3.21 31.38-17.62 17.74-31.42 44.51-21.34 82.1 7.5 27.93 28.16 48.86 53.51 58.01a85.085 85.085 0 0 0 44.21 12.68c32.33 141.33 149.67 237.27 302.91 237.27 152.95 0 270.32-96.18 302.46-237.59.99.21 2.01.33 3.07.33 20.19 0 38.76-7.05 53.4-18.79 19.15-10.87 34.12-29.04 40.26-51.91 11.11-41.45-6.8-69.76-26.86-87.28zm-509.59-168.61c2.43 4.07 60.83 100.36 170.86 142.1 30.35 11.51 61.45 18.1 91.53 24.47 60.34 12.78 117.33 24.85 156.15 75.25.4.53.85 1.01 1.32 1.47l-.06 2.55c0 18.79-1.42 36.95-4.16 54.4-49.92 79.76-132.74 132.02-235.34 143.28-7.64-10.09-23.22-17.05-41.31-17.05-25.67 0-46.48 13.89-46.48 30.98 0 17.13 20.82 30.99 46.48 30.99 23 0 41.94-11.19 45.63-25.83 33.09-3.8 64.65-11.71 94.23-23.65 42.25-17.07 79.49-41.93 110.66-73.89 4.99-5.11 9.78-10.4 14.41-15.84-37.15 113.15-136.46 185.89-266.12 185.9-.23-.01-.87-.01-1.1-.01-166.36 0-282.56-118.96-282.56-289.56l-.31-16.23c-.2-6.96.88-26.51 2.03-45.24 90.69-32.09 128.35-124.27 130-128.42zm59.82 258.51c0 29.69-24.08 53.78-53.78 53.78s-53.78-24.09-53.78-53.78c0-29.71 24.08-53.79 53.78-53.79 29.69 0 53.78 24.08 53.78 53.79zm250.46 0c0 29.22-23.7 52.92-52.92 52.92s-52.92-23.7-52.92-52.92c0-29.23 23.7-52.93 52.92-52.93s52.92 23.7 52.92 52.93zm0 0" fill="#d3a468"/></svg>