<svg height="32" viewBox="0 0 1024 1024" width="32" xmlns="http://www.w3.org/2000/svg"><path d="m275.967 205.801-54.79-27.851s-16.977-9.858-28.055 10.938c-.347 8.364-127.532 275.842-127.532 275.842s-8.092 21.927 8.485 30.71l50.205 26.893s22.83 13.623 34.879-11.829l124.264-270.706s11.76-23.126-7.457-33.997zm681.442 256.596-127.822-268.852s-10.213-23.842-30.295-14.875l-54.78 27.667s-17.956 7.829-9.126 29.695c6.14 5.502 129.711 274.89 129.711 274.89s11.532 20.136 28.406 12.008l51.227-24.562s24.494-10.338 12.68-35.971zm0 0-243.768-197.38c-32.245 5.615-104.183-18.343-104.183-18.343-14.573-8.666-68.904-11.716-68.904-11.716-41.646-3.046-96.896 29.582-96.896 29.582h-134.473l-19.567 42.245h89.043c-23.064 29.585-24.955 64.242-24.955 64.242 1.435 48.341-15.206 71.287-15.206 71.287-13.195 38.787 43.544 43.326 43.544 43.326 83.182-14.222 88.001-92.207 88.001-92.207 27.429-47.864 73.38-24.97 73.38-24.97l247.265 224.687c20.084 19.895 5.109 44.045 5.109 44.045-11.76 22.464-38.212 13.794-38.212 13.794l-174.805-129.67c-31.724-8.011-21.511 22.89-21.511 22.89l169.53 128.834c12.447 17.45 0 34.363 0 34.363-9.185 16.904-30.984 7.887-30.984 7.887l-153.575-113.186c-29.374-2.088-17.96 25.154-17.96 25.154l129.429 97.409c16.636 18.402 4.932 35.374 4.932 35.374-12.046 19.662-31.956 10.815-31.956 10.815l-121.684-89.271c-29.946-4.068-20.367 22.047-20.367 22.047l81.643 64.775c-1.955 36.217-36.723 21.873-36.723 21.873l-21.74-16.74c-16.781-12.565-26.22-20.371-26.22-20.371l-24.26-18.466c1.142-17.628-14.345-32.683-14.345-32.683-12.681-15.901-38.789-9.147-38.789-9.147-8.488-6.268-12.735-11.23-12.735-11.23 1.665-23.788-13.02-35.973-13.02-35.973-16.01-19.658-42.572-12.977-42.572-12.977-2.962-3.468-8.602-9.79-8.602-9.79 5.564-28.868-7.177-44.165-7.177-44.165-13.536-25.155-52.145-15.956-52.145-15.956l-59.377-78.103-16.928 37.347 50.206 66.988-33.798 48.13c-20.913 33.093 3.445 54.712 3.445 54.712 43.203 35.336 71.427-1.913 71.427-1.913-19.335 38.361 4.876 58.984 4.876 58.984 35.512 34.652 67.752-3.586 67.752-3.586-20.826 36.93 1.717 54.555 1.717 54.555 40.624 42.31 74.812-13.98 74.812-13.98-17.84 31.009 7.575 52.943 7.575 52.943 40.098 31.138 68.27-24.142 68.27-24.142 15.662 15.774 42.565 11.414 42.565 11.414 36.892-6.273 44.241-36.927 44.241-36.927 46.18 32.626 76.07 5.856 76.07 5.856 25.127-18.108 22.946-45.36 22.946-45.36 37.924 6.16 53.582-16.188 53.582-16.188 21.28-17.39 16.641-48.223 16.641-48.223 30.352-1.437 48.935-16.258 56.164-31.615 25.99-45.712-9.233-83.423-9.233-83.423l19.102-45.41zm0 0" fill="#d3a468"/></svg>