<svg height="32" viewBox="0 0 1024 1024" width="32" xmlns="http://www.w3.org/2000/svg"><g fill="#d3a468"><path d="m624 706.3h-74.1v-242.3c0-4.4-3.6-8-8-8h-60c-4.4 0-8 3.6-8 8v242.3h-73.9c-6.7 0-10.4 7.7-6.3 12.9l112 141.7c3.2 4.1 9.4 4.1 12.6 0l112-141.7c4.1-5.2.4-12.9-6.3-12.9z"/><path d="m811.4 366.7c-45.8-120.8-162.5-206.7-299.2-206.7s-253.4 85.8-299.2 206.6c-85.7 22.5-149 100.6-149 193.4 0 110.5 89.5 200 199.9 200h40.1c4.4 0 8-3.6 8-8v-60c0-4.4-3.6-8-8-8h-40.1c-33.7 0-65.4-13.4-89-37.7-23.5-24.2-36-56.8-34.9-90.6.9-26.4 9.9-51.2 26.2-72.1 16.7-21.3 40.1-36.8 66.1-43.7l37.9-9.9 13.9-36.6c8.6-22.8 20.6-44.1 35.7-63.4 14.9-19.2 32.6-35.9 52.4-49.9 41.1-28.9 89.5-44.2 140-44.2s98.9 15.3 140 44.2c19.9 14 37.5 30.8 52.4 49.9 15.1 19.3 27.1 40.7 35.7 63.4l13.8 36.5 37.8 10c54.2 14.6 92.1 63.9 92.1 120.1 0 33.1-12.9 64.3-36.3 87.7s-54.5 36.3-87.6 36.3h-40.1c-4.4 0-8 3.6-8 8v60c0 4.4 3.6 8 8 8h40.1c110.4 0 199.9-89.5 199.9-200 0-92.7-63.1-170.7-148.6-193.3z"/></g></svg>