<?xml version="1.0" standalone="no"?><!DOCTYPE svg PUBLIC "-//W3C//DTD SVG 1.1//EN" "http://www.w3.org/Graphics/SVG/1.1/DTD/svg11.dtd"><svg t="1566899634984" class="icon" viewBox="0 0 1024 1024" version="1.1" xmlns="http://www.w3.org/2000/svg" p-id="4510" xmlns:xlink="http://www.w3.org/1999/xlink" width="32" height="32"><defs><style type="text/css"></style></defs><path d="M778.743692 958.001867c-79.08622 0-163.143661-22.408359-250.030543-66.61621-80.046081-40.765449-159.092391-99.099019-228.628094-168.724773-69.581752-69.670779-127.829364-148.842956-168.549787-228.913597-44.119847-86.86744-66.529229-170.991396-66.529229-250.054079 0-51.251268 47.783283-100.755752 68.272943-119.65724C162.791132 96.855932 209.227744 65.116043 242.971265 65.116043c16.782222 0 36.44812 10.987239 61.909002 34.549887 19.009959 17.59268 40.372499 41.441854 61.73504 68.928882 12.903891 16.61133 77.256548 101.388155 77.256548 142.0656 0 33.352619-37.755905 56.56632-77.651544 81.068364-15.434527 9.461489-31.343869 19.294438-42.901089 28.53694-12.33391 9.853415-14.513552 15.08558-14.862499 16.237823 42.377156 105.662505 171.863253 235.148601 277.497105 277.481755 0.917906-0.305969 6.102998-2.397606 16.180518-14.866592 9.240455-11.509125 19.048845-27.510564 28.550243-42.900066 24.502044-39.935548 47.696302-77.649498 81.055061-77.649498 40.670282 0 125.424594 64.308655 142.079926 77.211523 27.467585 21.406542 51.317783 42.814108 68.883857 61.780065 23.591301 25.416879 34.577516 45.12371 34.577516 61.909002 0 33.744545-31.739888 80.306001-58.904575 109.952204-18.921955 20.621667-68.449975 68.623937-119.671567 68.623937L778.743692 958.001867zM242.751255 109.760846c-11.985986 0.216941-44.160779 14.865569-79.126128 47.104831-33.222659 30.630624-53.888328 63.871703-53.888328 86.828554 0 300.388465 368.926444 669.662833 669.006893 669.662833 22.934339 0 56.154951-20.750603 86.759993-54.147224 32.308847-35.183314 46.959521-67.48909 47.174416-79.522148-1.434675-8.459672-24.937972-41.462321-89.154529-90.946338-55.242162-42.464137-99.972922-65.309448-111.522979-65.570391-0.832971 0.217964-5.802146 2.136663-15.917528 14.996552-8.806573 11.205203-18.22406 26.507724-27.378557 41.332361-25.025976 40.677445-48.657186 79.129198-82.965573 79.129198-5.538133 0-10.946306-1.088798-16.176424-3.181459-117.233028-46.867424-255.786641-185.467085-302.658158-302.637692-5.621021-14.058181-6.492878-36.119639 21.148669-61.21213 14.736633-13.340843 35.093263-25.853831 54.846142-37.993313 14.823614-9.112542 30.170137-18.529005 41.331337-27.359115 12.857842-10.134825 14.776542-15.149025 14.997576-15.933901-0.309038-11.533684-23.107277-56.308447-65.572438-111.524003-49.486064-64.243163-82.486666-87.674828-90.945315-89.157599L242.751255 109.760846z" p-id="4511" fill="#555555"></path></svg>