<svg height="32" viewBox="0 0 1087 1024" width="33.96875" xmlns="http://www.w3.org/2000/svg"><path d="m542.086237 60.231471a481.853766 481.853766 0 1 0 0 963.768529 481.853766 481.853766 0 0 0 0-963.768529zm48.907134 730.370205c-1.203929 43.126473-33.127059 69.688917-74.56563 68.483987-39.693674-1.204929-70.893846-29.513271-69.688917-72.819733 1.204929-43.066477 34.091002-70.471871 73.783677-69.266942 41.620561 1.264926 71.916786 30.538211 70.47187 73.602688zm117.813097-308.024952c-10.118407 14.275164-32.886073 32.646087-61.4364 54.931781l-31.74114 21.743726c-15.479093 11.865305-25.116528 25.898483-30.236228 41.860548-2.649845 8.492502-4.577732 30.538211-5.059704 45.294346-.239986 2.890831-1.926887 9.396449-10.902361 9.396449h-94.624456c-9.937418 0-11.142347-5.782661-10.841364-8.673492 1.385919-40.174646 7.228576-73.362701 23.912598-99.984141 22.52668-35.777904 85.889967-73.543691 85.889968-73.543691 9.697432-7.227577 17.226991-15.058118 23.008652-23.490624 10.661375-14.455153 19.334867-30.7182 19.334867-48.185176 0-20.056825-4.818718-39.150706-17.648966-55.111771-14.997121-18.671906-31.199172-27.586384-62.399344-27.586384-30.7182 0-48.667148 15.479093-61.496397 35.777904-12.829248 20.358807-10.661375 44.270406-10.661375 66.074128h-117.813097c0-82.276179 21.50274-134.799102 66.978076-165.758287 30.7182-21.080765 69.988899-30.236228 115.70522-30.236229 59.990485 0 107.69369 11.083351 149.796223 43.066477 38.969717 29.513271 59.508513 71.132832 59.508513 127.269543 0 34.632971-12.046294 63.66427-29.272285 87.154893z"/></svg>