<svg height="32" viewBox="0 0 1024 1024" width="32" xmlns="http://www.w3.org/2000/svg"><g fill="#d3a468"><path d="m928 161h-228.8c-49.1 0-97.1 14.1-138.4 40.7l-48.8 31.3-48.8-31.3c-41.2-26.6-89.3-40.7-138.4-40.7h-228.8c-17.7 0-32 14.3-32 32v568c0 17.7 14.3 32 32 32h228.8c49.1 0 97.1 14.1 138.4 40.7l44.4 28.6c1.3.8 2.8 1.3 4.3 1.3s3-.4 4.3-1.3l44.4-28.6c41.4-26.6 89.5-40.7 138.6-40.7h228.8c17.7 0 32-14.3 32-32v-568c0-17.7-14.3-32-32-32zm-603.2 560h-188.8v-488h188.8c35.4 0 69.8 10.1 99.5 29.2l48.8 31.3 6.9 4.5v462c-47.6-25.6-100.8-39-155.2-39zm563.2 0h-188.8c-54.4 0-107.6 13.4-155.2 39v-462l6.9-4.5 48.8-31.3c29.7-19.1 64.1-29.2 99.5-29.2h188.8z"/><path d="m396.9 361h-185.8c-3.9 0-7.1 3.4-7.1 7.5v45c0 4.1 3.2 7.5 7.1 7.5h185.7c3.9 0 7.1-3.4 7.1-7.5v-45c.1-4.1-3.1-7.5-7-7.5zm223.1 7.5v45c0 4.1 3.2 7.5 7.1 7.5h185.7c3.9 0 7.1-3.4 7.1-7.5v-45c0-4.1-3.2-7.5-7.1-7.5h-185.7c-3.9 0-7.1 3.4-7.1 7.5zm-223.1 132.5h-185.8c-3.9 0-7.1 3.4-7.1 7.5v45c0 4.1 3.2 7.5 7.1 7.5h185.7c3.9 0 7.1-3.4 7.1-7.5v-45c.1-4.1-3.1-7.5-7-7.5zm416 0h-185.8c-3.9 0-7.1 3.4-7.1 7.5v45c0 4.1 3.2 7.5 7.1 7.5h185.7c3.9 0 7.1-3.4 7.1-7.5v-45c.1-4.1-3.1-7.5-7-7.5z"/></g></svg>