<svg height="32" viewBox="0 0 1024 1024" width="32" xmlns="http://www.w3.org/2000/svg"><path d="m632 888h-240c-4.4 0-8 3.6-8 8v32c0 17.7 14.3 32 32 32h192c17.7 0 32-14.3 32-32v-32c0-4.4-3.6-8-8-8zm-120-824c-181.1 0-328 146.9-328 328 0 121.4 66 227.4 164 284.1v115.9c0 17.7 14.3 32 32 32h264c17.7 0 32-14.3 32-32v-115.9c98-56.7 164-162.7 164-284.1 0-181.1-146.9-328-328-328zm127.9 549.8-35.9 20.8v117.4h-184v-117.4l-35.9-20.8c-78.7-45.5-128.1-129.3-128.1-221.8 0-141.4 114.6-256 256-256s256 114.6 256 256c0 92.5-49.4 176.3-128.1 221.8z" fill="#d3a468"/></svg>