<svg height="32" viewBox="0 0 1024 1024" width="32" xmlns="http://www.w3.org/2000/svg"><path d="m342 472h342c.4 0 .9 0 1.3-.1 4.4-.7 7.3-4.8 6.6-9.2l-40.2-248c-.6-3.9-4-6.7-7.9-6.7h-261.6c-3.9 0-7.3 2.8-7.9 6.7l-40.2 248c-.1.4-.1.9-.1 1.3 0 4.4 3.6 8 8 8zm91.2-196h159.5l20.7 128h-201zm2.5 282.7c-.6-3.9-4-6.7-7.9-6.7h-261.6c-3.9 0-7.3 2.8-7.9 6.7l-40.2 248c-.1.4-.1.9-.1 1.3 0 4.4 3.6 8 8 8h342c.4 0 .9 0 1.3-.1 4.4-.7 7.3-4.8 6.6-9.2zm-239.2 189.3 20.7-128h159.5l20.7 128zm709.4 58.7-40.2-248c-.6-3.9-4-6.7-7.9-6.7h-261.6c-3.9 0-7.3 2.8-7.9 6.7l-40.2 248c-.1.4-.1.9-.1 1.3 0 4.4 3.6 8 8 8h342c.4 0 .9 0 1.3-.1 4.3-.7 7.3-4.8 6.6-9.2zm-279.4-58.7 20.7-128h159.5l20.7 128z" fill="#d3a468"/></svg>