<svg height="32" viewBox="0 0 1024 1024" width="32" xmlns="http://www.w3.org/2000/svg"><path d="m244.923 84.661c42.369 0 82.206 16.506 112.161 46.464 29.96 29.957 46.456 69.792 46.456 112.157v158.616h-158.617c-42.371 0-82.199-16.497-112.162-46.455-29.958-29.96-46.454-69.793-46.454-112.161 0-42.365 16.495-82.2 46.454-112.157 29.961-29.958 69.791-46.464 112.162-46.464zm0-84.587c-134.318 0-243.208 108.888-243.208 243.208 0 134.322 108.888 243.213 243.208 243.213h188.402c30.268 0 54.804-24.542 54.804-54.811v-188.398c.007-134.324-108.882-243.212-243.206-243.212m0 620.526h158.616v158.615c0 42.372-16.497 82.205-46.456 112.161-29.955 29.96-69.792 46.457-112.161 46.457-42.371 0-82.199-16.497-112.157-46.457-29.964-29.956-46.46-69.789-46.46-112.161 0-42.369 16.495-82.197 46.46-112.156 29.957-29.964 69.787-46.459 112.158-46.459zm0-84.592c-134.317 0-243.208 108.89-243.208 243.207 0 134.324 108.888 243.212 243.208 243.212 134.324 0 243.206-108.888 243.213-243.212v-188.397c0-30.268-24.543-54.811-54.811-54.811h-188.402zm535.938-451.347c42.37 0 82.198 16.498 112.162 46.464 29.959 29.957 46.456 69.786 46.456 112.157 0 42.368-16.497 82.202-46.461 112.161-29.959 29.958-69.787 46.455-112.157 46.455h-158.617v-158.618c0-42.371 16.497-82.198 46.455-112.157 29.964-29.956 69.797-46.462 112.162-46.462zm0-84.587c-134.318 0-243.207 108.888-243.207 243.208v188.402c0 30.27 24.537 54.804 54.804 54.804l188.403.006c134.318 0 243.205-108.891 243.205-243.213 0-134.319-108.886-243.207-243.205-243.207m0 620.526c42.37 0 82.198 16.5 112.162 46.459 29.959 29.959 46.456 69.793 46.456 112.156 0 42.372-16.497 82.205-46.461 112.161-29.959 29.96-69.787 46.457-112.157 46.457-42.371 0-82.198-16.497-112.162-46.457-29.958-29.962-46.455-69.789-46.455-112.161v-158.615zm0-84.592h-188.403c-30.267 0-54.804 24.536-54.804 54.811l-.005 188.396c0 134.324 108.889 243.212 243.212 243.212 134.318 0 243.205-108.888 243.205-243.206 0-134.324-108.886-243.213-243.205-243.213" fill="#d3a468"/></svg>